<?xml version="1.0" encoding="iso-8859-1"?>
<!-- Uploaded to: SVG Repo, www.svgrepo.com, Generator: SVG Repo Mixer Tools -->
<svg height="800px" width="800px" version="1.1" id="Layer_1" xmlns="http://www.w3.org/2000/svg" xmlns:xlink="http://www.w3.org/1999/xlink" 
	 viewBox="0 0 512 512" xml:space="preserve">
<path style="fill:#A5A5A5;" d="M512,77.913v33.391H0V77.913c0-24.588,19.933-44.522,44.522-44.522h422.957
	C492.066,33.391,512,53.325,512,77.913z"/>
<path style="fill:#777777;" d="M397.913,66.226v1.113c0,4.61-3.738,8.348-8.348,8.348c-4.61,0-8.348-3.738-8.348-8.348v-1.113
	c0-4.61,3.738-8.348,8.348-8.348C394.175,57.878,397.913,61.616,397.913,66.226z M422.957,57.878c-4.61,0-8.348,3.738-8.348,8.348
	v1.113c0,4.61,3.738,8.348,8.348,8.348c4.61,0,8.348-3.738,8.348-8.348v-1.113C431.304,61.616,427.567,57.878,422.957,57.878z
	 M456.348,57.878c-4.61,0-8.348,3.738-8.348,8.348v1.113c0,4.61,3.738,8.348,8.348,8.348s8.348-3.738,8.348-8.348v-1.113
	C464.696,61.616,460.958,57.878,456.348,57.878z"/>
<path style="fill:#E9F2F4;" d="M512,100.174v311.652c0,24.588-19.933,44.522-44.522,44.522H44.522
	C19.933,456.348,0,436.414,0,411.826V100.174h66.783V22.261C66.783,9.966,76.749,0,89.043,0h89.043
	c12.295,0,22.261,9.966,22.261,22.261v77.913H512z"/>
<path style="fill:#C3E4ED;" d="M200.348,22.261v77.913H66.783V22.261C66.783,9.966,76.749,0,89.043,0h89.043
	C190.382,0,200.348,9.966,200.348,22.261z"/>
<path style="fill:#B2D1D8;" d="M178.087,38.957v22.261c0,6.147-4.983,11.13-11.13,11.13h-66.783c-6.147,0-11.13-4.983-11.13-11.13
	V38.957c0-6.147,4.983-11.13,11.13-11.13h66.783C173.104,27.826,178.087,32.809,178.087,38.957z"/>
<path style="fill:#CFDFE2;" d="M434.087,406.261H77.913c-12.295,0-22.261-9.966-22.261-22.261V261.565
	c0-12.295,9.966-22.261,22.261-22.261h356.174c12.295,0,22.261,9.966,22.261,22.261V384
	C456.348,396.295,446.382,406.261,434.087,406.261z M200.348,172.522L200.348,172.522c0-12.295-9.966-22.261-22.261-22.261H77.913
	c-12.295,0-22.261,9.966-22.261,22.261l0,0c0,12.295,9.966,22.261,22.261,22.261h100.174
	C190.382,194.783,200.348,184.816,200.348,172.522z M456.348,172.522L456.348,172.522c0-12.295-9.966-22.261-22.261-22.261H256
	c-12.295,0-22.261,9.966-22.261,22.261l0,0c0,12.295,9.966,22.261,22.261,22.261h178.087
	C446.382,194.783,456.348,184.816,456.348,172.522z"/>
<path style="fill:#80A886;" d="M445.217,395.13c0,64.545-52.324,116.87-116.87,116.87s-116.87-52.324-116.87-116.87
	s52.324-116.87,116.87-116.87S445.217,330.585,445.217,395.13z"/>
<path style="fill:#A3CCAA;" d="M424.451,395.13c0,53.077-43.027,96.104-96.103,96.104s-96.104-43.027-96.104-96.104
	s43.027-96.104,96.104-96.104S424.451,342.054,424.451,395.13z"/>
<path style="fill:#FFFFFF;" d="M398.136,402.209l-41.806,20.903l-20.903,41.806c-2.916,5.833-11.241,5.833-14.158,0l-20.903-41.806
	l-41.806-20.903c-5.833-2.916-5.833-11.241,0-14.158l41.806-20.903l20.903-41.806c2.916-5.833,11.241-5.833,14.158,0l20.903,41.806
	l41.806,20.903C403.969,390.968,403.969,399.293,398.136,402.209z"/>
</svg>